<svg width="20" height="18" viewBox="0 0 20 18" fill="none" xmlns="http://www.w3.org/2000/svg">
<path d="M9.9913 17L9.71318 17.4155C9.88135 17.5281 10.1008 17.5282 10.269 17.4158L9.9913 17ZM9.9913 17C9.71318 17.4155 9.71307 17.4154 9.71292 17.4153L9.71245 17.415L9.7109 17.414L9.70536 17.4103L9.68475 17.3963C9.66684 17.3842 9.64067 17.3663 9.60679 17.343C9.53905 17.2964 9.44045 17.2278 9.31542 17.139C9.06539 16.9614 8.70937 16.7027 8.28264 16.3763C7.43 15.7241 6.29109 14.7988 5.15014 13.7081C4.0112 12.6193 2.85799 11.3542 1.98642 10.0214C1.11915 8.69512 0.5 7.25523 0.5 5.82752C0.5 2.94267 2.46172 0.5 5.41392 0.5C7.14972 0.5 8.60916 1.37938 9.73429 2.386C9.82449 2.4667 9.91279 2.54843 9.99917 2.63086C10.0853 2.54793 10.1727 2.46621 10.2612 2.38596L10.597 2.75647L10.2612 2.38596C11.4312 1.32582 12.8382 0.5 14.5861 0.5C17.5383 0.5 19.5 2.94267 19.5 5.82752C19.5 7.2555 18.8795 8.69553 18.0106 10.0217C17.1374 11.3546 15.9819 12.6196 14.8408 13.7084C13.6977 14.7991 12.5566 15.7244 11.7023 16.3766C11.2748 16.7029 10.9181 16.9617 10.6676 17.1392C10.5423 17.2281 10.4435 17.2966 10.3756 17.3433C10.3417 17.3666 10.3155 17.3844 10.2975 17.3966L10.2769 17.4105L10.2713 17.4142L10.2698 17.4153L10.2693 17.4156C10.2692 17.4157 10.269 17.4158 9.9913 17Z" fill="#321A3D" stroke="#321A3D" stroke-linejoin="round"/>
</svg>
