<svg width="20" height="18" viewBox="0 0 20 18" fill="none" xmlns="http://www.w3.org/2000/svg">
<path d="M9.9913 17L9.71318 17.4155C9.88135 17.5281 10.1008 17.5282 10.269 17.4158L9.9913 17ZM9.9913 17C10.269 17.4158 10.2692 17.4157 10.2693 17.4156L10.2698 17.4153L10.2713 17.4142L10.2769 17.4105L10.2975 17.3966C10.3155 17.3844 10.3417 17.3666 10.3756 17.3433C10.4435 17.2966 10.5423 17.2281 10.6676 17.1392C10.9181 16.9617 11.2748 16.7029 11.7023 16.3766C12.5566 15.7244 13.6977 14.7991 14.8408 13.7084C15.9819 12.6196 17.1374 11.3546 18.0106 10.0217C18.8795 8.69553 19.5 7.2555 19.5 5.82752C19.5 2.94267 17.5383 0.5 14.5861 0.5C12.8382 0.5 11.4312 1.32582 10.2612 2.38596C10.1727 2.46621 10.0853 2.54793 9.99917 2.63086C9.91279 2.54843 9.82449 2.4667 9.73429 2.386C8.60916 1.37938 7.14972 0.5 5.41392 0.5C2.46172 0.5 0.5 2.94267 0.5 5.82752C0.5 7.25523 1.11915 8.69512 1.98642 10.0214C2.85799 11.3542 4.0112 12.6193 5.15014 13.7081C6.29109 14.7988 7.43 15.7241 8.28264 16.3763C8.70937 16.7027 9.06539 16.9614 9.31542 17.139C9.44045 17.2278 9.53905 17.2964 9.60679 17.343C9.64067 17.3663 9.66684 17.3842 9.68475 17.3963L9.70536 17.4103L9.7109 17.414L9.71245 17.415L9.71292 17.4153C9.71307 17.4154 9.71318 17.4155 9.9913 17ZM9.64024 4.88317C9.73446 4.9808 9.86432 5.03594 10 5.03594C10.1357 5.03594 10.2655 4.9808 10.3598 4.88317L10.9714 4.24943C12.1385 3.04024 13.2743 2.32327 14.5861 2.32327C16.31 2.32327 17.6587 3.72684 17.6587 5.82752C17.6587 6.75213 17.2456 7.83928 16.4659 9.02936C15.6973 10.2025 14.649 11.3594 13.5631 12.3954C12.4825 13.4265 11.3966 14.3077 10.578 14.9326C10.3615 15.0979 10.1645 15.2446 9.99207 15.3709C9.82024 15.2448 9.62394 15.0983 9.4083 14.9334C8.59138 14.3085 7.50756 13.4273 6.42908 12.3963C5.34537 11.3604 4.29919 10.2035 3.53203 9.03034C2.75385 7.84033 2.34133 6.75283 2.34133 5.82752C2.34133 3.72684 3.69003 2.32327 5.41392 2.32327C6.71814 2.32327 7.94139 3.123 9.02858 4.24943L9.64024 4.88317Z" fill="#321A3D" stroke="#321A3D" stroke-linejoin="round"/>
</svg>
